<?xml version="1.0" encoding="UTF-8" standalone="no"?>
<svg width="200px" height="200px" viewBox="0 0 200 200" version="1.1" xmlns="http://www.w3.org/2000/svg" xmlns:xlink="http://www.w3.org/1999/xlink">
    <!-- Generator: Sketch 3.7.2 (28276) - http://www.bohemiancoding.com/sketch -->
    <title>8</title>
    <desc>Created with Sketch.</desc>
    <defs>
        <rect id="path-1" x="0" y="0" width="200" height="200"></rect>
    </defs>
    <g id="pattern" stroke="none" stroke-width="1" fill="none" fill-rule="evenodd">
        <g id="8">
            <g>
                <mask id="mask-2" fill="white">
                    <use xlink:href="#path-1"></use>
                </mask>
                <use id="Mask" fill-opacity="0" fill="#D8D8D8" xlink:href="#path-1"></use>
                <g id="Group" mask="url(#mask-2)" stroke="#000000" stroke-opacity="0.02" stroke-width="0.5">
                    <g transform="translate(0.000000, -17.000000)" id="Shape">
                        <polygon fill-opacity="0.106666667" fill="#DDDDDD" points="9.21985816 0.0210838453 27.3758865 0.0210838453 36.4539007 15.7333333 27.3758865 31.4455828 9.21985816 31.4455828 0.141843972 15.7333333"></polygon>
                        <polyline fill-opacity="0.106666667" fill="#DDDDDD" points="163.546099 15.7333333 172.624113 0.0210838453 190.780142 0.0210838453 199.858156 15.7333333 190.780142 31.4455828 172.624113 31.4455828 163.546099 15.7333333"></polyline>
                        <polyline fill-opacity="0.106666667" fill="#DDDDDD" points="0.141843972 204.280327 9.21985816 188.568078 27.3758865 188.568078 36.4539007 204.280327 27.3758865 219.992577 9.21985816 219.992577 0.141843972 204.280327"></polyline>
                        <polyline fill-opacity="0.106666667" fill="#DDDDDD" points="163.546099 204.280327 172.624113 188.568078 190.780142 188.568078 199.858156 204.280327 190.780142 219.992577 172.624113 219.992577 163.546099 204.280327"></polyline>
                        <polyline fill-opacity="0.02" fill="#DDDDDD" points="27.3758865 31.4455828 36.4539007 15.7333333 54.6099291 15.7333333 63.6879433 31.4455828 54.6099291 47.1578323 36.4539007 47.1578323 27.3758865 31.4455828"></polyline>
                        <polyline fill-opacity="0.02" fill="#DDDDDD" points="27.3758865 219.992577 36.4539007 204.280327 54.6099291 204.280327 63.6879433 219.992577 54.6099291 235.704826 36.4539007 235.704826 27.3758865 219.992577"></polyline>
                        <polyline fill-opacity="0.124" fill="#DDDDDD" points="54.6099291 15.7333333 63.6879433 0.0210838453 81.8439716 0.0210838453 90.9219858 15.7333333 81.8439716 31.4455828 63.6879433 31.4455828 54.6099291 15.7333333"></polyline>
                        <polyline fill-opacity="0.124" fill="#DDDDDD" points="54.6099291 204.280327 63.6879433 188.568078 81.8439716 188.568078 90.9219858 204.280327 81.8439716 219.992577 63.6879433 219.992577 54.6099291 204.280327"></polyline>
                        <polyline fill-opacity="0.046" fill="#222222" points="81.8439716 31.4455828 90.9219858 15.7333333 109.078014 15.7333333 118.156028 31.4455828 109.078014 47.1578323 90.9219858 47.1578323 81.8439716 31.4455828"></polyline>
                        <polyline fill-opacity="0.046" fill="#222222" points="81.8439716 219.992577 90.9219858 204.280327 109.078014 204.280327 118.156028 219.992577 109.078014 235.704826 90.9219858 235.704826 81.8439716 219.992577"></polyline>
                        <polyline fill-opacity="0.0893333333" fill="#DDDDDD" points="109.078014 15.7333333 118.156028 0.0210838453 136.312057 0.0210838453 145.390071 15.7333333 136.312057 31.4455828 118.156028 31.4455828 109.078014 15.7333333"></polyline>
                        <polyline fill-opacity="0.0893333333" fill="#DDDDDD" points="109.078014 204.280327 118.156028 188.568078 136.312057 188.568078 145.390071 204.280327 136.312057 219.992577 118.156028 219.992577 109.078014 204.280327"></polyline>
                        <polyline fill-opacity="0.141333333" fill="#DDDDDD" points="136.312057 31.4455828 145.390071 15.7333333 163.546099 15.7333333 172.624113 31.4455828 163.546099 47.1578323 145.390071 47.1578323 136.312057 31.4455828"></polyline>
                        <polyline fill-opacity="0.141333333" fill="#DDDDDD" points="136.312057 219.992577 145.390071 204.280327 163.546099 204.280327 172.624113 219.992577 163.546099 235.704826 145.390071 235.704826 136.312057 219.992577"></polyline>
                        <polyline fill-opacity="0.124" fill="#DDDDDD" points="0.141843972 47.1578323 9.21985816 31.4455828 27.3758865 31.4455828 36.4539007 47.1578323 27.3758865 62.8700818 9.21985816 62.8700818 0.141843972 47.1578323"></polyline>
                        <polyline fill-opacity="0.124" fill="#DDDDDD" points="163.546099 47.1578323 172.624113 31.4455828 190.780142 31.4455828 199.858156 47.1578323 190.780142 62.8700818 172.624113 62.8700818 163.546099 47.1578323"></polyline>
                        <polyline fill-opacity="0.15" fill="#222222" points="27.3758865 62.8700818 36.4539007 47.1578323 54.6099291 47.1578323 63.6879433 62.8700818 54.6099291 78.5823313 36.4539007 78.5823313 27.3758865 62.8700818"></polyline>
                        <polyline fill-opacity="0.106666667" fill="#DDDDDD" points="54.6099291 47.1578323 63.6879433 31.4455828 81.8439716 31.4455828 90.9219858 47.1578323 81.8439716 62.8700818 63.6879433 62.8700818 54.6099291 47.1578323"></polyline>
                        <polyline fill-opacity="0.0806666667" fill="#222222" points="81.8439716 62.8700818 90.9219858 47.1578323 109.078014 47.1578323 118.156028 62.8700818 109.078014 78.5823313 90.9219858 78.5823313 81.8439716 62.8700818"></polyline>
                        <polyline fill-opacity="0.02" fill="#DDDDDD" points="109.078014 47.1578323 118.156028 31.4455828 136.312057 31.4455828 145.390071 47.1578323 136.312057 62.8700818 118.156028 62.8700818 109.078014 47.1578323"></polyline>
                        <polyline fill-opacity="0.15" fill="#222222" points="136.312057 62.8700818 145.390071 47.1578323 163.546099 47.1578323 172.624113 62.8700818 163.546099 78.5823313 145.390071 78.5823313 136.312057 62.8700818"></polyline>
                        <polyline fill-opacity="0.141333333" fill="#DDDDDD" points="0.141843972 78.5823313 9.21985816 62.8700818 27.3758865 62.8700818 36.4539007 78.5823313 27.3758865 94.2945808 9.21985816 94.2945808 0.141843972 78.5823313"></polyline>
                        <polyline fill-opacity="0.141333333" fill="#DDDDDD" points="163.546099 78.5823313 172.624113 62.8700818 190.780142 62.8700818 199.858156 78.5823313 190.780142 94.2945808 172.624113 94.2945808 163.546099 78.5823313"></polyline>
                        <polyline fill-opacity="0.0286666667" fill="#222222" points="27.3758865 94.2945808 36.4539007 78.5823313 54.6099291 78.5823313 63.6879433 94.2945808 54.6099291 110.00683 36.4539007 110.00683 27.3758865 94.2945808"></polyline>
                        <polyline fill-opacity="0.098" fill="#222222" points="54.6099291 78.5823313 63.6879433 62.8700818 81.8439716 62.8700818 90.9219858 78.5823313 81.8439716 94.2945808 63.6879433 94.2945808 54.6099291 78.5823313"></polyline>
                        <polyline fill-opacity="0.0373333333" fill="#DDDDDD" points="81.8439716 94.2945808 90.9219858 78.5823313 109.078014 78.5823313 118.156028 94.2945808 109.078014 110.00683 90.9219858 110.00683 81.8439716 94.2945808"></polyline>
                        <polyline fill-opacity="0.0893333333" fill="#DDDDDD" points="109.078014 78.5823313 118.156028 62.8700818 136.312057 62.8700818 145.390071 78.5823313 136.312057 94.2945808 118.156028 94.2945808 109.078014 78.5823313"></polyline>
                        <polyline fill-opacity="0.072" fill="#DDDDDD" points="136.312057 94.2945808 145.390071 78.5823313 163.546099 78.5823313 172.624113 94.2945808 163.546099 110.00683 145.390071 110.00683 136.312057 94.2945808"></polyline>
                        <polyline fill-opacity="0.132666667" fill="#222222" points="0.141843972 110.00683 9.21985816 94.2945808 27.3758865 94.2945808 36.4539007 110.00683 27.3758865 125.71908 9.21985816 125.71908 0.141843972 110.00683"></polyline>
                        <polyline fill-opacity="0.132666667" fill="#222222" points="163.546099 110.00683 172.624113 94.2945808 190.780142 94.2945808 199.858156 110.00683 190.780142 125.71908 172.624113 125.71908 163.546099 110.00683"></polyline>
                        <polyline fill-opacity="0.141333333" fill="#DDDDDD" points="27.3758865 125.71908 36.4539007 110.00683 54.6099291 110.00683 63.6879433 125.71908 54.6099291 141.431329 36.4539007 141.431329 27.3758865 125.71908"></polyline>
                        <polyline fill-opacity="0.0633333333" fill="#222222" points="54.6099291 110.00683 63.6879433 94.2945808 81.8439716 94.2945808 90.9219858 110.00683 81.8439716 125.71908 63.6879433 125.71908 54.6099291 110.00683"></polyline>
                        <polyline fill-opacity="0.0286666667" fill="#222222" points="81.8439716 125.71908 90.9219858 110.00683 109.078014 110.00683 118.156028 125.71908 109.078014 141.431329 90.9219858 141.431329 81.8439716 125.71908"></polyline>
                        <polyline fill-opacity="0.098" fill="#222222" points="109.078014 110.00683 118.156028 94.2945808 136.312057 94.2945808 145.390071 110.00683 136.312057 125.71908 118.156028 125.71908 109.078014 110.00683"></polyline>
                        <polyline fill-opacity="0.046" fill="#222222" points="136.312057 125.71908 145.390071 110.00683 163.546099 110.00683 172.624113 125.71908 163.546099 141.431329 145.390071 141.431329 136.312057 125.71908"></polyline>
                        <polyline fill-opacity="0.124" fill="#DDDDDD" points="0.141843972 141.431329 9.21985816 125.71908 27.3758865 125.71908 36.4539007 141.431329 27.3758865 157.143579 9.21985816 157.143579 0.141843972 141.431329"></polyline>
                        <polyline fill-opacity="0.124" fill="#DDDDDD" points="163.546099 141.431329 172.624113 125.71908 190.780142 125.71908 199.858156 141.431329 190.780142 157.143579 172.624113 157.143579 163.546099 141.431329"></polyline>
                        <polyline fill-opacity="0.106666667" fill="#DDDDDD" points="27.3758865 157.143579 36.4539007 141.431329 54.6099291 141.431329 63.6879433 157.143579 54.6099291 172.855828 36.4539007 172.855828 27.3758865 157.143579"></polyline>
                        <polyline fill-opacity="0.115333333" fill="#222222" points="54.6099291 141.431329 63.6879433 125.71908 81.8439716 125.71908 90.9219858 141.431329 81.8439716 157.143579 63.6879433 157.143579 54.6099291 141.431329"></polyline>
                        <polyline fill-opacity="0.0806666667" fill="#222222" points="81.8439716 157.143579 90.9219858 141.431329 109.078014 141.431329 118.156028 157.143579 109.078014 172.855828 90.9219858 172.855828 81.8439716 157.143579"></polyline>
                        <polyline fill-opacity="0.072" fill="#DDDDDD" points="109.078014 141.431329 118.156028 125.71908 136.312057 125.71908 145.390071 141.431329 136.312057 157.143579 118.156028 157.143579 109.078014 141.431329"></polyline>
                        <polyline fill-opacity="0.0893333333" fill="#DDDDDD" points="136.312057 157.143579 145.390071 141.431329 163.546099 141.431329 172.624113 157.143579 163.546099 172.855828 145.390071 172.855828 136.312057 157.143579"></polyline>
                        <polyline fill-opacity="0.0546666667" fill="#DDDDDD" points="0.141843972 172.855828 9.21985816 157.143579 27.3758865 157.143579 36.4539007 172.855828 27.3758865 188.568078 9.21985816 188.568078 0.141843972 172.855828"></polyline>
                        <polyline fill-opacity="0.0546666667" fill="#DDDDDD" points="163.546099 172.855828 172.624113 157.143579 190.780142 157.143579 199.858156 172.855828 190.780142 188.568078 172.624113 188.568078 163.546099 172.855828"></polyline>
                        <polyline fill-opacity="0.106666667" fill="#DDDDDD" points="27.3758865 188.568078 36.4539007 172.855828 54.6099291 172.855828 63.6879433 188.568078 54.6099291 204.280327 36.4539007 204.280327 27.3758865 188.568078"></polyline>
                        <polyline fill-opacity="0.0633333333" fill="#222222" points="54.6099291 172.855828 63.6879433 157.143579 81.8439716 157.143579 90.9219858 172.855828 81.8439716 188.568078 63.6879433 188.568078 54.6099291 172.855828"></polyline>
                        <polyline fill-opacity="0.141333333" fill="#DDDDDD" points="81.8439716 188.568078 90.9219858 172.855828 109.078014 172.855828 118.156028 188.568078 109.078014 204.280327 90.9219858 204.280327 81.8439716 188.568078"></polyline>
                        <polyline fill-opacity="0.132666667" fill="#222222" points="109.078014 172.855828 118.156028 157.143579 136.312057 157.143579 145.390071 172.855828 136.312057 188.568078 118.156028 188.568078 109.078014 172.855828"></polyline>
                        <polyline fill-opacity="0.141333333" fill="#DDDDDD" points="136.312057 188.568078 145.390071 172.855828 163.546099 172.855828 172.624113 188.568078 163.546099 204.280327 145.390071 204.280327 136.312057 188.568078"></polyline>
                    </g>
                </g>
            </g>
        </g>
    </g>
</svg>